<?xml version="1.0" encoding="UTF-8"?>
<svg width="101px" height="18px" viewBox="0 0 101 18" version="1.1" xmlns="http://www.w3.org/2000/svg" xmlns:xlink="http://www.w3.org/1999/xlink">
    <!-- Generator: Sketch 46.2 (44496) - http://www.bohemiancoding.com/sketch -->
    <desc>Created with Sketch.</desc>
    <defs></defs>
    <g id="Page-1" stroke="none" stroke-width="1" fill="none" fill-rule="evenodd">
        <g id="logo-dark" transform="translate(-1.000000, -6.000000)">
            <path d="M6.4,23 L1.35,23 L1.35,6.325 L10.25,6.325 C14.15,6.325 16.25,8.925 16.25,12.05 C16.25,15.15 14.15,17.75 10.25,17.75 L6.4,17.75 L6.4,23 Z M9.6,13.35 C10.45,13.35 11.125,12.925 11.125,12.05 C11.125,11.15 10.45,10.725 9.6,10.725 L6.4,10.725 L6.4,13.35 L9.6,13.35 Z M32.825,23 L27.075,23 L24.775,17.75 L22.95,17.75 L22.95,23 L17.9,23 L17.9,6.325 L26.8,6.325 C30.7,6.325 32.8,8.925 32.8,12.05 C32.8,14.925 31.125,16.45 29.8,17.1 L32.825,23 Z M26.025,13.35 C26.875,13.35 27.675,12.95 27.675,12.025 C27.675,11.125 26.875,10.725 26.025,10.725 L22.95,10.725 L22.95,13.35 L26.025,13.35 Z M39.9,23 L39.9,6.325 L34.85,6.325 L34.85,23 L39.9,23 Z M62.4,23 L62.4,6.325 L55.425,6.325 L52.5,14.325 L49.575,6.325 L42.6,6.325 L42.6,23 L47.65,23 L47.65,12.975 L51.375,23 L53.625,23 L57.35,12.975 L57.35,23 L62.4,23 Z M77.75,23 L77.75,18.6 L70.15,18.6 L70.15,16.775 L77.575,16.775 L77.575,12.375 L70.15,12.375 L70.15,10.725 L77.75,10.725 L77.75,6.325 L65.1,6.325 L65.1,23 L77.75,23 Z M94.925,23 L89.175,23 L86.875,17.75 L85.05,17.75 L85.05,23 L80,23 L80,6.325 L88.9,6.325 C92.8,6.325 94.9,8.925 94.9,12.05 C94.9,14.925 93.225,16.45 91.9,17.1 L94.925,23 Z M88.125,13.35 C88.975,13.35 89.775,12.95 89.775,12.025 C89.775,11.125 88.975,10.725 88.125,10.725 L85.05,10.725 L85.05,13.35 L88.125,13.35 Z" id="PRIMER" fill="#000000"></path>
            <path d="M99.125,23.3 C100.575,23.3 101.8,22.075 101.8,20.625 C101.8,19.175 100.575,17.95 99.125,17.95 C97.675,17.95 96.45,19.175 96.45,20.625 C96.45,22.075 97.675,23.3 99.125,23.3 Z" id="." fill="#063EF0"></path>
        </g>
    </g>
</svg>